# xmcd
#
# Track frame offsets: 
#        150
#        11385
#        23310
#        37840
#        51522
#        64790
#        76485
#        90890
#        104697
#        117770
#        131022
#        143332
#        157582
#        169942
#        181325
#        193510
#        206235
#        218410
#        231077
#        243977
#        257200
#        271887
#        285780
#
# Disc length: 3977 seconds
#
# Revision: 0
# Processed by: cddbd v1.4PL0 Copyright (c) Steve Scherf et al.
# Submitted via: ExactAudioCopy v0.90b4
#
DISCID=240f8717
DTITLE=Hank Snow - The Yodelling Ranger, Vol. 1 - Disc 3
DYEAR=1900
DGENRE=Country
TTITLE0=Your Last Kiss Has Broken My Heart
TTITLE1=When It's Over, I'll Be Coming Back To You
TTITLE2=Your Mother Is Praying For You
TTITLE3=Soldier's Last Letter
TTITLE4=Riding Along, Singing A Song
TTITLE5=Don't Hang Around Me Anymore
TTITLE6=Only A Rose From My Mother's Grave
TTITLE7=Too Many Tears
TTITLE8=Your Little Band Of Gold
TTITLE9=Sunny Side Of The Mountain
TTITLE10=You Broke The Chain That Held Our Hearts
TTITLE11=My Blue River Rose
TTITLE12=You Played Love On The Strings Of My Heart
TTITLE13=How She Could Yodel
TTITLE14=Headin' Home
TTITLE15=Dry Those Tears Little Girl And Don't Cry
TTITLE16=In Memory Of You Dear Old Pal
TTITLE17=Can't Have You Blues
TTITLE18=Just Waiting For You
TTITLE19=My Kalua Sweetheart
TTITLE20=I'll Not Forget My Mother's Prayer
TTITLE21=Darling, I'll Always Love You
TTITLE22=Blue Ranger
EXTD=
EXTT0=
EXTT1=
EXTT2=
EXTT3=
EXTT4=
EXTT5=
EXTT6=
EXTT7=
EXTT8=
EXTT9=
EXTT10=
EXTT11=
EXTT12=
EXTT13=
EXTT14=
EXTT15=
EXTT16=
EXTT17=
EXTT18=
EXTT19=
EXTT20=
EXTT21=
EXTT22=
PLAYORDER=
